<svg id="图层_1" data-name="图层 1" xmlns="http://www.w3.org/2000/svg" xmlns:xlink="http://www.w3.org/1999/xlink" viewBox="0 0 645.36 85.35"><defs><style>.cls-1{fill:none;}.cls-2{fill:#e0e1e1;}.cls-3{fill:#004098;}.cls-4{clip-path:url(#clip-path);}.cls-5{fill:#a40000;}.cls-6{clip-path:url(#clip-path-2);}.cls-7{fill:url(#radial-gradient);}.cls-8{font-size:37.65px;fill:#003d8a;font-family:SimHei;}</style><clipPath id="clip-path" transform="translate(-131 -231.04)"><rect class="cls-1" x="98.9" y="154.18" width="233.6" height="335.38"/></clipPath><clipPath id="clip-path-2" transform="translate(-131 -231.04)"><path class="cls-1" d="M164.18,286.83a2.19,2.19,0,0,0-.16.76V288a11.51,11.51,0,0,0,.06,1.18,11.74,11.74,0,1,0,7.8-12.26c1.94-2.27,3.94-3.91,5.83-4.34,3.42-.76,6,2,6.64,2.75l.05,0c-.9-1.9-3.42-6-6.71-6-2.67,0-7.76,3.68-13.51,17.54"/></clipPath><radialGradient id="radial-gradient" cx="119.5" cy="700.89" r="0.45" gradientTransform="matrix(33.4, 0, 0, -43.27, -3948.36, 30376.43)" gradientUnits="userSpaceOnUse"><stop offset="0" stop-color="#e8380d"/><stop offset="0.23" stop-color="#e8380d"/><stop offset="0.63" stop-color="#93262a"/><stop offset="0.72" stop-color="#9d2227"/><stop offset="0.86" stop-color="#b71820"/><stop offset="1" stop-color="#d80c18"/></radialGradient></defs><title>未标题-1</title><path class="cls-2" d="M224.72,301.92l-.66-1.58a38.35,38.35,0,0,0-26.95-65l-.66-1.59-.66,1.59a38.35,38.35,0,0,0-27,65l-.66,1.58a40,40,0,1,1,56.55,0m-53.13-3.39a35.05,35.05,0,0,0,49.71,0l1,1a36.54,36.54,0,0,1-51.79,0Zm22.84-59.9a35.11,35.11,0,0,0-24.23,58.42l-.62,1.5a36.57,36.57,0,0,1,25.47-61.41Zm37.15,35.08a35.19,35.19,0,0,0-33.11-35.08l-.62-1.49a36.58,36.58,0,0,1,25.47,61.4l-.63-1.5a35,35,0,0,0,8.89-23.33M199,239.84a33.94,33.94,0,0,1,23.21,56Zm-28.28,56a33.94,33.94,0,0,1,23.23-56Zm25.75-22.17,24,24a33.92,33.92,0,0,1-48.07,0Zm0,40a39.83,39.83,0,0,1-28.27-11.74l1.12-1.11a38.33,38.33,0,0,0,54.3,0l1.11,1.12a39.84,39.84,0,0,1-28.26,11.74m0-82.63a42.68,42.68,0,1,0,42.67,42.67A42.73,42.73,0,0,0,196.45,231" transform="translate(-131 -231.04)"/><path class="cls-3" d="M240.66,288.17c1.18-4.39,6.29-7.59,11.82-7.59a10.25,10.25,0,0,1,7.2,2.43l.77-2.84a19.81,19.81,0,0,0-9.85-2.29c-9.19,0-17.89,4.6-19.41,10.29s4.7,10.29,13.9,10.29a28.13,28.13,0,0,0,10.1-1.88l.75-2.73a14,14,0,0,1-7.27,1.88c-5.54,0-9.19-3.16-8-7.56" transform="translate(-131 -231.04)"/><path class="cls-3" d="M140.7,288.11c1.17-4.39,6.29-7.59,11.82-7.59a10.24,10.24,0,0,1,7.2,2.43l.77-2.85a19.92,19.92,0,0,0-9.85-2.28c-9.19,0-17.89,4.6-19.41,10.29s4.7,10.29,13.89,10.29a27.93,27.93,0,0,0,10.11-1.89l.74-2.72a14,14,0,0,1-7.26,1.88c-5.54,0-9.19-3.17-8-7.56" transform="translate(-131 -231.04)"/><polygon class="cls-3" points="86.89 67.36 94.57 67.36 100.03 46.94 92.35 46.94 86.89 67.36"/><g class="cls-4"><path class="cls-3" d="M197.43,279.1a8.58,8.58,0,0,0-5.05,4.27,3.84,3.84,0,0,0,1.46,4.69c3.7,2.42,9.65,1.21,12.72,3.09a1.58,1.58,0,0,1,.66,1.65,3.09,3.09,0,0,1-1.95,1.77c-1.23.52-9.48,1.94-16-2.23l-.79,2.94c6.85,3.87,16.7,3.86,23,1.76a7.26,7.26,0,0,0,4.77-4.74,3.67,3.67,0,0,0-1.76-4.2c-3.51-2.21-10.92-2-13-3a1.32,1.32,0,0,1-.67-1.73,2.94,2.94,0,0,1,1.86-1.38,22.77,22.77,0,0,1,14.29.92l.79-2.91c-.72-.35-10.29-4.16-20.34-.9" transform="translate(-131 -231.04)"/></g><path class="cls-5" d="M157.66,301.73l.24,0c16.68-56.71,27.12-29.8,28.39-24.28h.05c-.57-5.05-3.06-14.83-8-15.71a5.26,5.26,0,0,0-.89-.08c-5.37,0-13.23,8.42-19.77,40" transform="translate(-131 -231.04)"/><g class="cls-6"><rect class="cls-7" x="33.02" y="38.25" width="23.47" height="30.4"/></g><line class="cls-1" x1="54.51" y1="82.22" x2="54.6" y2="81.77"/><text class="cls-8" transform="translate(155.92 70.65)">智慧工地综合服务平台</text></svg>